<svg width="56" height="46" viewBox="0 0 56 46" fill="none" xmlns="http://www.w3.org/2000/svg">
<path d="M54.3642 26.9458C56.2392 25.0794 56.3899 22.6411 54.6346 20.5853C49.04 14.0338 43.2098 7.69779 37.1285 1.5943C35.2636 -0.277942 32.7836 -0.366601 30.7674 1.34661C28.8583 2.96961 26.2786 5.26984 24.643 6.76611C23.8305 7.51508 23.7989 8.71303 24.5812 9.56171C25.0037 10.0201 25.552 10.2473 26.0955 10.2495C26.1032 10.252 26.1104 10.2591 26.1179 10.2588C26.6436 10.254 27.1682 10.114 27.6956 10.0999C28.339 10.0829 28.9948 10.1417 29.6166 10.3089C30.836 10.6363 31.9114 11.2453 32.8503 12.2639C35.3196 14.9427 35.36 18.9371 32.4325 21.6356C29.4678 24.3685 25.5082 24.0924 22.8397 21.1974C21.2373 19.4591 20.5745 17.2221 21.2551 15.0184C21.2641 14.9898 21.2656 14.9621 21.2727 14.934C21.2754 14.9214 21.2778 14.909 21.2806 14.8964C21.2977 14.8154 21.3067 14.7354 21.3079 14.6566C21.3479 14.1172 21.1653 13.5547 20.7448 13.0985C20.0596 12.3552 19.0566 12.2131 18.2724 12.6922C18.1947 12.7262 18.1065 12.7913 17.9538 12.9327C16.3325 14.4373 13.5775 17.0587 11.7079 18.9159C10.7887 19.8289 10.2157 21.0687 10.2615 22.3741C10.3134 23.8637 11.182 24.8067 11.934 25.994C12.1933 26.4034 12.4035 26.8598 12.4077 27.3536C12.4135 28.0678 11.9631 28.7483 11.3371 29.094C10.6545 29.4705 9.92471 29.4088 9.19526 29.2518C8.51982 29.1065 7.85406 29.0121 7.16017 29.0518C5.67966 29.1359 4.28596 29.7573 3.19687 30.7612C0.232114 33.4941 -0.00407043 37.5032 2.75315 40.4944C5.47613 43.4485 9.43503 43.7401 12.2322 41.1618C13.3222 40.157 14.1396 38.8532 14.4332 37.3916C14.5728 36.6965 14.5894 35.9839 14.4939 35.2831C14.398 34.5798 14.2201 33.943 14.5297 33.2549C14.7051 32.8655 14.9925 32.5235 15.3646 32.309C17.0099 31.3594 18.258 33.0133 19.2317 34.0775C20.5969 35.5696 21.9745 37.0504 23.3653 38.5183C25.2019 40.4567 27.0612 42.3736 28.9436 44.2674C30.7244 46.0588 33.3274 46.1996 35.305 44.5148C41.8869 38.9072 48.2367 33.0457 54.3651 26.9455L54.3642 26.9458Z" fill="#FFCA16"></path>
</svg>