<svg width="824" height="787" viewBox="0 0 824 787" fill="none" xmlns="http://www.w3.org/2000/svg">
<g clip-path="url(#clip0_2001_231)">
<g clip-path="url(#clip1_2001_231)">
<mask id="mask0_2001_231" style="mask-type:luminance" maskUnits="userSpaceOnUse" x="38" y="38" width="823" height="710">
<path d="M38 38.9995H860.002V748H38V38.9995Z" fill="white"/>
</mask>
<g mask="url(#mask0_2001_231)">
<path d="M682.482 686.707C682.482 691.572 656.039 695.517 623.42 695.517C590.801 695.517 564.359 691.572 564.359 686.707C564.359 681.841 590.801 677.897 623.42 677.897C656.039 677.897 682.482 681.841 682.482 686.707Z" fill="#DBAC00"/>
<path d="M529.194 631.108C529.194 640.28 478.299 647.715 415.516 647.715C352.735 647.715 301.839 640.28 301.839 631.108C301.839 621.936 352.735 614.501 415.516 614.501C478.299 614.501 529.194 621.936 529.194 631.108Z" fill="#DBAC00"/>
<path d="M699.986 376.536C692.1 491.664 592.269 578.609 477.009 570.731C361.748 562.854 274.704 463.138 282.59 348.01C290.476 232.881 390.307 145.937 505.567 153.814C620.829 161.691 707.873 261.407 699.986 376.536Z" fill="#001E4D"/>
<path d="M287.254 404.477C289.95 410.346 296.765 419.029 309.359 420.256C321.953 421.484 310.348 389.396 310.348 389.396L287.254 404.477Z" fill="#AAB0C2"/>
<path d="M290.378 409.612C292.823 414.16 299.108 414.267 303.56 413.295C313.885 411.401 330.473 398.027 325.492 386.391C324.454 384.857 323.302 383.67 322.102 382.307C322.828 384.38 324.327 386.295 324.441 388.492C324.617 399.701 300.223 417.862 290.378 409.612Z" fill="#778293"/>
<path d="M235.584 325.13C229.849 330.066 226.876 329.289 231.791 345.918C236.706 362.546 256.828 389.258 269.118 399.72C278.419 407.638 295.49 410.832 310.737 399.614C325.984 388.396 330.132 380.451 325.878 371.161C321.623 361.87 300.959 320.219 297.999 312.169C295.039 304.119 283.227 297.52 274.93 301.242C266.633 304.963 235.584 325.13 235.584 325.13Z" fill="#778293"/>
<path d="M282.528 306.756C279.265 300.564 266.921 300.643 254.956 306.933C242.992 313.223 235.938 323.342 239.201 329.534C242.464 335.727 254.809 335.648 266.773 329.358C278.737 323.067 285.791 312.949 282.528 306.756Z" fill="#080604"/>
<path d="M313.43 386.472C316.673 381.849 316.966 376.468 314.086 374.453C311.206 372.438 306.243 374.553 303.001 379.176C299.76 383.799 299.466 389.18 302.346 391.195C305.226 393.21 310.189 391.095 313.43 386.472Z" fill="#566576"/>
<path d="M239.271 312.86C239.271 312.86 253.776 297.198 254.364 297.198C254.951 297.198 266.516 309.336 260.244 317.167C253.971 324.998 239.271 312.86 239.271 312.86Z" fill="#080604"/>
<path d="M215.357 284.472L235.056 265.677L240.936 275.662L219.767 295.337C219.767 295.337 216.239 292.107 215.357 284.472Z" fill="#080604"/>
<path d="M214.575 293.477C211.831 289.562 210.655 281.731 212.223 276.445L219.867 283.297C219.867 283.297 218.495 287.604 220.848 292.303L218.887 294.065C218.887 294.065 216.339 293.673 214.575 293.477Z" fill="#566576"/>
<path d="M233.587 268.418L219.866 283.297L212.222 276.445L234.175 253.539L238.879 258.042L233.587 268.418Z" fill="#AAB0C2"/>
<path d="M248.287 176.989L257.695 172.29L247.503 168.374L269.063 153.887L240.446 151.537L249.854 101.809L221.63 146.447L214.574 117.863L205.166 142.532L192.621 103.767L190.269 130.393L182.037 119.821L186.741 147.622L151.852 141.749L176.157 161.327L133.82 164.459L180.077 178.555L146.365 201.265L183.605 193.826L172.237 231.807L203.205 199.699L248.287 176.989Z" fill="white"/>
<path d="M191.054 187.169L191.49 191.786C192.428 195.449 186.07 195.672 188.31 198.72L240.045 264.791L247.103 257.576L197.424 188.735L191.054 187.169Z" fill="#080604"/>
<path d="M249.022 173.906L223.198 161.327L187.134 196.371L203.016 205.776L206.832 205.622L243.73 174.86L249.022 173.906Z" fill="#D8D9E1"/>
<path d="M260.634 199.895L285.036 235.135L270.63 244.239L250.638 213.11L260.634 199.895Z" fill="#778293"/>
<path d="M238.878 317.558L291.349 257.562C295.582 252.722 296.177 245.696 292.817 240.215L286.703 230.241L271.807 240.421L253.775 214.187L265.927 199.308L251.524 176.351C249.385 172.941 245.249 172.701 242.112 175.227L210.654 204.007C210.412 204.202 205.369 208.653 205.557 208.901L244.954 258.629L240.044 264.79L239.662 272.529L218.886 294.065L230.058 309.434L238.878 317.558Z" fill="#B01419"/>
<path d="M229.115 339.534C234.275 334.702 237.651 328.721 239.487 323.799C241.324 318.876 233.888 304.709 225.646 297.716C217.404 290.723 210.123 292.685 199.168 298.551L229.115 339.534Z" fill="#566576"/>
<path d="M495.325 190.426C472.593 186.926 460.294 208.961 452.051 224.237L457.555 229.369L466.395 229.454L468.914 219.632L495.325 190.426Z" fill="#F1511B"/>
<path d="M596.107 245.234C603.021 193.336 496.022 150.425 463.324 223.329L469.554 234.407L536.272 264.234L579.332 248.667L596.107 245.234Z" fill="#F47216"/>
<path d="M468.685 227.283C490.127 179.476 543.516 181.471 575.786 203.142C544.42 177.92 486.004 172.761 463.324 223.33L469.554 234.407L473.747 236.281L468.685 227.283Z" fill="#FAB20B"/>
<path d="M596.107 245.234C578.724 210.333 532.996 214.504 516.419 246.227L523.732 258.565L529.864 255.499C529.864 255.499 553.924 218.456 596.107 245.234Z" fill="#F1511B"/>
<path d="M524.587 255.096C551.033 209.989 633.551 235.642 594.707 302.659L535.284 269.46L524.587 255.096Z" fill="#F47216"/>
<path d="M528.37 259.382C544.178 232.419 580.014 230.747 597.995 248.071C581.809 226.349 541.6 226.079 524.587 255.096L535.284 269.46L536.297 270.025L528.37 259.382Z" fill="#FAB20B"/>
<path d="M535.284 269.46C510.815 226.95 452.359 212.48 434.287 232.897L535.284 269.46Z" fill="#F47216"/>
<path d="M535.229 269.44L535.284 269.46C510.815 226.951 452.359 212.48 434.287 232.896L441.01 234.965C458.808 219.918 508.758 231.672 535.229 269.44Z" fill="#FAB20B"/>
<path d="M494.689 507.527L566.096 302.089L583.547 286.378C601.294 304.52 617.352 321.382 627.559 337.595C618.75 366.187 580.024 465.339 563.583 503.177C549.39 504.08 528.562 507.524 494.689 507.527Z" fill="#FCD006"/>
<path d="M646.15 683.568L630.784 631.782C615.556 628.054 598.653 633.677 592.099 641.379L621.921 690.445L607.178 690.317C549.342 682.329 537.613 600.163 597.995 591.268C648.371 583.847 661.635 683.568 661.635 683.568C661.635 683.568 650.95 683.141 646.15 683.568Z" fill="#566576"/>
<path d="M573.996 490.403C572.056 490.248 570.134 490.449 568.296 491.05C563.971 492.464 560.552 495.931 558.667 500.811C556.509 506.403 556.61 512.997 558.954 519.376C563.445 531.608 575.321 539.301 584.869 536.177C589.195 534.764 592.613 531.297 594.497 526.416C596.656 520.824 596.555 514.23 594.212 507.851C590.583 497.972 582.142 491.052 573.996 490.403ZM577.581 557.558C560.925 556.23 544.969 544.157 538.342 526.115C534.327 515.181 534.262 503.598 538.16 493.499C542.333 482.689 550.467 474.827 561.066 471.362C582.154 464.473 606.267 477.817 614.823 501.113C618.838 512.047 618.903 523.629 615.005 533.728C610.832 544.539 602.697 552.4 592.099 555.865C587.344 557.419 582.431 557.945 577.581 557.558Z" fill="#566576"/>
<path d="M615.417 604.829L601.94 544.209L569.599 546.558L583.076 607.178L615.417 604.829Z" fill="#566576"/>
<path d="M661.634 683.567L646.268 631.781C631.04 628.054 614.138 633.677 607.583 641.379L622.662 690.317C564.826 682.329 553.097 600.163 613.48 591.268C668.72 583.129 699.368 651.768 661.634 683.567Z" fill="#AAB0C2"/>
<path d="M589.478 490.403C587.539 490.248 585.616 490.449 583.779 491.05C579.453 492.464 576.034 495.931 574.15 500.811C571.992 506.403 572.093 512.997 574.437 519.376C578.927 531.608 590.803 539.301 600.352 536.177C604.678 534.764 608.096 531.297 609.98 526.416C612.139 520.824 612.038 514.23 609.694 507.851C606.066 497.972 597.625 491.052 589.478 490.403ZM593.063 557.558C576.407 556.23 560.451 544.157 553.825 526.115C549.809 515.181 549.745 503.598 553.643 493.499C557.815 482.689 565.95 474.827 576.548 471.362C597.637 464.473 621.75 477.817 630.306 501.113C634.321 512.047 634.386 523.629 630.488 533.728C626.314 544.539 618.18 552.4 607.581 555.865C602.826 557.419 597.914 557.945 593.063 557.558Z" fill="#AAB0C2"/>
<path d="M422.069 460.244L401.765 466.684L404.562 527.094L425.048 527.078L432.882 508.397L422.069 460.244Z" fill="#AAB0C2"/>
<path d="M445.026 549.502L439.551 456.243L422.068 460.244L425.048 527.078L445.026 549.502Z" fill="#778293"/>
<path d="M393.044 595.918C376.052 609.546 367.302 619.674 369.059 628.209C370.816 636.746 389.26 639.309 407.902 636.381C428.427 633.156 455.987 622.621 458.644 620.375C461.302 618.129 462.079 614.74 457.664 608.45C453.248 602.16 430.351 598.278 430.351 598.278L411.34 583.37L397.152 587.616L393.044 595.918Z" fill="#080604"/>
<path d="M390.898 632.06C396.516 632.528 402.44 632.268 407.979 631.16C422.968 628.162 444.893 621.72 460.656 614.618C460.417 613.414 459.87 612.034 458.942 610.441C443.509 617.421 421.879 623.778 407.092 626.734C392.53 629.647 377.567 626.15 372.054 621.24C371.387 620.645 370.884 620.053 370.53 619.466C369.681 621.214 369.149 622.892 368.943 624.509C368.979 624.542 369.011 624.575 369.048 624.608C373.596 628.66 381.848 631.306 390.898 632.06Z" fill="white"/>
<path d="M395.077 561.97L390.732 597.951C393.408 596.349 396.485 594.368 398.964 592.812C409.592 586.128 416.651 599.716 422.296 603.598C421.668 575.076 420.078 528.638 420.078 528.638L419.57 527.089C419.123 527.2 418.784 527.316 418.526 527.4C418.536 527.427 418.499 527.411 418.499 527.411C415.047 529.465 410.812 529.893 407.002 528.212C405.596 527.591 404.36 526.736 403.341 525.691C401.145 526.157 398.02 531.425 398.02 531.425L395.077 561.97Z" fill="#AAB0C2"/>
<path d="M453.099 577.993C452.219 573.983 451.28 569.859 450.325 565.771C448.994 560.082 448.069 558.877 446.748 553.767C444.226 544.174 441.787 536.34 439.906 533.147C437.638 529.276 434.361 527.388 431.064 526.595C426.485 525.502 421.84 526.456 419.571 527.088L420.079 528.638C420.079 528.638 421.668 575.076 422.296 603.598C423.271 604.293 424.192 604.81 425.047 605.076C430.743 606.795 456.25 609.858 456.25 609.858C456.25 609.858 457.753 609.109 459.786 609.961C459.582 608.922 457.971 600.769 455.691 589.979C454.888 586.246 454.032 582.181 453.099 577.993Z" fill="#778293"/>
<path d="M438.268 595.192C438.09 599.01 439.874 602.194 442.252 602.305C444.63 602.415 446.702 599.41 446.88 595.593C447.058 591.775 445.275 588.591 442.897 588.48C440.518 588.37 438.446 591.375 438.268 595.192Z" fill="#AAB0C2"/>
<path d="M416.899 598.391C416.899 598.391 399.88 570.627 390.732 597.951C390.732 597.951 392.211 596.829 398.229 594.867C402.732 593.399 407.658 594.482 416.899 598.391Z" fill="#566576"/>
<path d="M426.441 518.969C425.884 528.934 419.125 536.662 411.343 536.229C403.56 535.795 397.703 527.365 398.259 517.399C398.815 507.433 405.575 499.705 413.357 500.139C421.139 500.572 426.997 509.003 426.441 518.969Z" fill="#080604"/>
<path d="M442.87 549.373L441.743 486.834L467.615 495.913L466.783 568.559L451.494 568.168L442.87 549.373Z" fill="#080604"/>
<path d="M481.287 500.857L478.151 570.518L460.804 564.644L461.686 495.081L481.287 500.857Z" fill="#AAB0C2"/>
<path d="M383.058 595.646C372.504 614.689 364.002 625.026 355.282 624.748C346.562 624.47 340.894 606.752 340.612 587.906C340.302 567.154 347.649 526.602 349.413 523.604C351.176 520.606 354.388 519.263 361.345 522.539C368.301 525.815 374.383 561.04 374.383 561.04L397.531 577.217L392.692 587.354L383.058 595.646Z" fill="#080604"/>
<path d="M347.768 603.908C346.35 598.458 345.599 592.582 345.75 586.943C346.157 571.679 350.426 537.369 354.75 520.646C355.979 520.675 357.433 520.98 359.163 521.622C354.902 537.999 350.668 572.005 350.267 587.063C349.87 601.892 355.866 616.025 361.648 620.615C362.348 621.171 363.018 621.565 363.658 621.814C362.078 622.947 360.513 623.756 358.952 624.234C358.913 624.204 358.875 624.178 358.837 624.148C354.066 620.36 350.051 612.688 347.768 603.908Z" fill="white"/>
<path d="M419.227 590.148L385.037 591.661C378.421 584.026 370.875 567.238 367.494 559.26C395.943 561.782 454.187 567.447 454.187 567.447L455.701 568.057C455.56 568.495 455.421 568.825 455.32 569.077C455.294 569.065 455.308 569.103 455.308 569.103C453.026 572.406 452.317 576.599 453.743 580.508C454.269 581.951 455.041 583.24 456.018 584.324C455.406 586.482 449.936 589.247 449.936 589.247L419.227 590.148Z" fill="#080604"/>
<path d="M597.845 414.492C600.614 398.038 590.707 396.259 584.57 405.155L585.298 407.7L596.315 415.429L597.845 414.492Z" fill="#080604"/>
<path d="M568.585 429.045L551.249 429.955L546.757 419.875C549.083 407.463 557.373 393.844 565.212 387.651C574.763 380.105 590.053 386.021 596.051 390.707C587.503 395.673 579.344 400.669 568.585 429.045Z" fill="#566576"/>
<path d="M566.514 421.123C560.369 440.34 563.802 458.43 572.384 461.089C574.542 461.75 576.905 461.417 579.332 460.227L579.336 460.207C580.918 459.446 582.524 458.305 584.128 456.844L588.796 451.936C586.796 450.801 584.93 449.832 583.249 448.989L580.345 450.862C579.076 451.355 577.845 451.469 576.724 451.127C574.401 450.401 572.872 447.864 572.187 444.157C571.186 438.898 571.9 431.302 574.459 423.296C575.827 419.005 577.666 415.052 579.707 411.707C584.161 404.43 589.599 400.011 593.45 401.194C597.148 402.331 598.44 408.361 597.644 416.254C599.047 417.006 600.553 417.842 602.132 418.761C604.019 407.808 603.381 398.342 599.922 393.612C598.893 392.173 597.606 391.185 596.051 390.708C595.757 390.616 595.445 390.545 595.13 390.493C586.537 389.054 572.437 402.577 566.514 421.123Z" fill="#778293"/>
<path d="M583.548 286.378C534.8 264.59 399.997 222.091 377.944 216.634C360.303 251.874 318.257 376.781 302.063 429.933C332.973 444.754 435.965 485.133 494.69 507.527C523.708 446.916 566.252 338.287 583.548 286.378Z" fill="#FAB10B"/>
<path d="M581.327 305.157C579.743 309.499 580.267 313.677 582.496 314.488C584.726 315.3 587.818 312.438 589.402 308.096C590.986 303.755 590.463 299.577 588.233 298.766C586.003 297.954 582.912 300.815 581.327 305.157Z" fill="#E88A0F"/>
<path d="M616.715 340.96C615.421 344.197 615.507 347.273 616.905 347.831C618.304 348.389 620.487 346.216 621.781 342.98C623.074 339.743 622.989 336.666 621.59 336.109C620.191 335.551 618.008 337.723 616.715 340.96Z" fill="#E88A0F"/>
<path d="M510.152 493.839C508.568 498.181 509.092 502.358 511.321 503.17C513.551 503.982 516.643 501.12 518.227 496.778C519.811 492.437 519.288 488.259 517.058 487.448C514.828 486.635 511.736 489.497 510.152 493.839Z" fill="#E88A0F"/>
<path d="M427.912 251.502C409.876 247.731 389.167 261.98 381.676 283.331C375.093 302.119 380.884 320.137 394.62 326.783C391.55 323.513 401.566 321.429 401.566 321.429C401.53 318.593 392.339 309.282 393.392 306.242C397.87 293.534 410.951 285.213 422.613 287.654C434.274 290.096 440.104 302.393 435.626 315.101L435.897 315.345C440.649 310.258 444.537 304.016 446.992 297.015C454.495 275.644 445.949 255.273 427.912 251.502Z" fill="white"/>
<path d="M502.651 277.189C484.466 274.014 464.193 288.953 457.377 310.578C452.076 327.413 456.47 343.328 467.275 351.032C465.85 346.496 475.474 350.271 477.113 345.106C481.176 332.16 485.043 312.826 497.319 315.026C509.117 317.158 515.743 328.563 512.608 340.907C517.245 335.631 520.958 329.216 523.223 322.068C530.048 300.476 520.836 280.363 502.651 277.189Z" fill="white"/>
</g>
<path d="M457.085 310.43C452.49 325.115 455.305 339.122 463.315 347.627C458.013 339.403 456.568 327.838 460.322 315.807C466.822 294.998 486.424 280.708 504.098 283.867C515.543 285.912 523.338 294.802 525.668 306.444C525.026 291.506 516.327 279.552 502.587 277.115C500.895 276.814 499.187 276.669 497.472 276.669C480.603 276.67 463.245 290.766 457.085 310.43Z" fill="url(#paint0_linear_2001_231)"/>
<path d="M381.159 282.762C376.094 297.283 378.446 311.373 386.165 320.137C381.14 311.744 380.076 300.14 384.215 288.242C391.38 267.663 411.409 254.032 428.946 257.773C440.303 260.195 447.793 269.336 449.738 281.047C449.585 266.098 441.292 253.865 427.658 250.976C425.649 250.55 423.61 250.345 421.559 250.345C405.027 250.345 387.812 263.703 381.159 282.762Z" fill="url(#paint1_linear_2001_231)"/>
<mask id="mask1_2001_231" style="mask-type:luminance" maskUnits="userSpaceOnUse" x="38" y="38" width="823" height="710">
<path d="M38 38.9995H860.002V748H38V38.9995Z" fill="white"/>
</mask>
<g mask="url(#mask1_2001_231)">
<path d="M389.026 346.021L389.013 346.04C387.876 351.81 390.662 363.813 390.662 363.813C390.662 363.813 391.008 363.975 391.629 364.249C391.836 364.34 392.043 364.432 392.304 364.561C397.376 366.908 417.395 375.594 425.446 377.658C435.126 380.147 457.024 372.997 457.024 372.997L453.005 371.386L389.026 346.021Z" fill="white"/>
<path d="M471.897 382.567C468.328 373.78 459.805 364.404 449.904 363.507C457.031 370.324 463.188 377.673 471.897 382.567Z" fill="#95461D"/>
<path d="M412.649 400.279C404.191 399.215 398.237 397.386 390.804 393.842C393.362 402.435 405.766 406.115 412.649 400.279Z" fill="#95461D"/>
<path d="M394.477 365.105C401.576 368.366 417.264 375.212 424.012 377.042C434.019 379.765 456.951 372.894 456.951 372.894L462.223 375.164C459.466 385.843 427.533 403.112 399.315 385.365C385.821 378.134 389.074 356.109 389.074 356.109C389.276 360.173 392.203 363.282 394.477 365.105Z" fill="#080604"/>
<path d="M395.897 296.185C402.26 282.96 416.224 276.467 427.088 281.683C437.952 286.898 441.6 301.846 435.237 315.071C434.785 316.011 434.29 316.913 433.764 317.784C427.759 323.907 420.156 328.741 411.079 330.721L411.643 331.366C409.036 331.311 406.464 330.733 404.046 329.572C393.182 324.357 389.533 309.409 395.897 296.185Z" fill="#080604"/>
<path d="M468.893 319.75C476.026 306.261 491.458 300.417 503.361 306.697C514.642 312.649 518.7 327.351 513.023 340.354C506.139 348.642 496.381 356.262 484.143 357.76C481.873 357.384 479.647 356.659 477.533 355.544C465.629 349.263 461.761 333.238 468.893 319.75Z" fill="#080604"/>
<path d="M419.115 332.997C419.115 332.997 388.478 314.428 378.251 320.331L401.374 338.322L419.115 332.997Z" fill="#FAB10B"/>
<path d="M495.491 364.311C495.491 364.311 467.571 341.86 456.695 346.394L477.257 367.291L495.491 364.311Z" fill="#FAB10B"/>
<path d="M630.617 455.17C621.017 432.227 596.709 412.168 584.569 405.154C582.39 407.081 575.207 416.207 573.12 428.731L630.617 455.17Z" fill="#AAB0C2"/>
<path d="M531.669 476.464C530.474 483.93 527.701 485.253 542.194 494.794C556.688 504.335 589.313 511.785 605.46 511.863C617.682 511.922 632.789 503.365 637.197 484.97C641.605 466.574 639.646 457.83 630.395 453.471C621.145 449.112 578.459 430.595 570.999 426.35C563.538 422.104 550.251 424.672 546.313 432.861C542.376 441.051 531.669 476.464 531.669 476.464Z" fill="#778293"/>
<path d="M555.68 432.18C549.188 429.55 539.806 437.563 534.724 450.078C529.642 462.592 530.786 474.87 537.278 477.5C543.77 480.13 553.152 472.117 558.234 459.602C563.316 447.088 562.173 434.811 555.68 432.18Z" fill="#080604"/>
<path d="M508.464 416.263L507.916 448.148C507.916 448.148 517.51 463.094 528.71 456.623C539.909 450.152 550.238 434.766 546.269 427.451C542.301 420.136 522.113 411.549 522.113 411.549L508.464 416.263Z" fill="#080604"/>
<path d="M551.938 439.125C546.375 478.457 538.008 487.502 517.914 488.739C503.723 489.612 489.162 479.129 488.287 471.232L487.899 442.536L490.149 442.02L525.195 457.238C525.195 457.238 537.062 450.63 538.086 449.617C539.109 448.605 551.938 439.125 551.938 439.125Z" fill="#AAB0C2"/>
<path d="M630.769 473.191C630.261 467.569 627.01 463.268 623.509 463.583C620.007 463.899 617.58 468.712 618.087 474.334C618.595 479.955 621.846 484.257 625.347 483.941C628.849 483.625 631.276 478.812 630.769 473.191Z" fill="#566576"/>
<path d="M492.711 438.472C508.886 459.702 535.894 462.385 544.53 442.036C551.617 425.337 538.681 409.7 508.177 410.185" stroke="#778293" stroke-width="9.31295" stroke-miterlimit="10"/>
<path d="M573.528 427.677C571.344 426.759 569.34 425.576 567.204 424.896C565.024 424.147 562.754 424.142 560.44 424.137C565.222 422.236 570.021 424.289 573.528 427.677Z" fill="#566576"/>
<path d="M600.183 415.812C595.897 412.577 589.916 415.202 586.134 418.05C577.207 424.315 567.355 444.137 577.115 452.966C578.762 453.964 580.365 454.586 582.09 455.353C580.505 453.71 578.256 452.551 577.194 450.527C572.157 440.017 587.301 412.29 600.183 415.812Z" fill="#778293"/>
<path d="M621.443 438.151C617.672 434.329 611.374 436.06 607.218 438.33C597.475 443.235 584.85 461.422 593.226 471.571C594.71 472.797 596.207 473.644 597.802 474.653C596.471 472.798 594.415 471.325 593.658 469.169C590.2 458.041 609.209 432.8 621.443 438.151Z" fill="#778293"/>
<path d="M456.394 567.776L453.649 582.655L378.764 582.557L367.592 561.217L350.441 518.635C413.946 535.864 465.018 538.017 456.394 567.776Z" fill="#778293"/>
<path d="M380.583 544.891C376.758 544.814 373.695 542.825 373.743 540.448C373.791 538.07 376.93 536.205 380.755 536.281C384.581 536.358 387.643 538.347 387.596 540.724C387.548 543.102 384.408 544.967 380.583 544.891Z" fill="#AAB0C2"/>
<path d="M464.269 561.75C454.277 561.642 446.107 567.864 446.023 575.649C445.938 583.434 453.97 589.833 463.963 589.941C473.954 590.05 482.124 583.827 482.209 576.042C482.293 568.257 474.262 561.859 464.269 561.75Z" fill="#080604"/>
<path d="M410.579 532.328C421.581 534.053 444.936 538.955 451.74 547.88C446.869 543.568 440.477 541.735 434.465 539.617C426.639 537.045 418.412 534.897 410.579 532.328Z" fill="#080604"/>
<path d="M630.901 604.829L617.424 544.209L585.083 546.558L598.56 607.178L630.901 604.829Z" fill="#AAB0C2"/>
<path d="M220.393 314.484C228.663 325.801 232.568 337.016 229.115 339.533C225.662 342.051 216.159 334.917 207.889 323.6C199.619 312.283 195.715 301.067 199.167 298.551C202.62 296.033 212.124 303.167 220.393 314.484Z" fill="#080604"/>
<path d="M228.629 163.936C233.73 170.722 227.46 179.676 217.204 187.367C206.948 195.057 196.591 198.573 191.49 191.786C186.389 184.999 190.568 173.263 200.823 165.573C211.079 157.882 223.528 157.149 228.629 163.936Z" fill="#080604"/>
<path d="M209.22 167.432L189.522 141.1C187.562 140.904 185.406 137.967 185.21 134.639L178.546 125.437C176.782 125.242 174.822 122.501 174.234 119.564L167.374 109.775C165.609 109.971 162.866 106.251 163.061 104.097L156.202 94.3086C155.613 95.4829 153.653 96.0704 153.261 94.113L148.165 93.3299L147.185 101.357L157.965 116.823C159.533 116.627 161.297 118.977 161.885 121.914L168.746 132.094C171.882 132.094 173.254 136.205 173.45 138.359L180.309 147.952C181.486 147.756 183.642 150.302 184.622 154.021L190.894 162.831C192.658 162.44 195.402 166.159 195.206 169.096L200.596 175.067C204.32 176.438 210.004 173.501 209.22 167.432Z" fill="#AAB0C2"/>
<path d="M189.521 141.099C188.059 140.953 186.488 139.28 185.703 137.058L190.961 162.826C192.192 162.626 193.86 164.342 194.695 166.386L190.076 141.879L189.521 141.099Z" fill="#566576"/>
<path d="M178.545 125.438C177.039 125.27 175.394 123.248 174.578 120.834L180.016 147.543L180.309 147.952C181.485 147.756 183.641 150.301 184.621 154.021L178.771 125.748L178.545 125.438Z" fill="#566576"/>
<path d="M163.456 106.034L168.746 132.094C171.017 132.094 172.359 134.249 173.004 136.255L167.374 109.775C166.077 109.919 164.254 107.945 163.456 106.034Z" fill="#566576"/>
<path d="M156.203 94.3081C155.615 95.483 153.654 96.0704 153.263 94.1124L157.463 116.102L157.967 116.823C159.535 116.627 161.299 118.976 161.887 121.914L162.174 122.34L156.741 95.0772L156.203 94.3081Z" fill="#566576"/>
<path d="M257.824 244.874L251.98 249.379C250.106 250.824 247.413 250.477 245.966 248.605L216.255 210.146L228.887 200.409L258.599 238.867C260.045 240.74 259.698 243.429 257.824 244.874Z" fill="#778293"/>
<path d="M253.247 241.818C252.8 243.818 251.385 245.204 250.088 244.914C248.79 244.625 248.102 242.769 248.549 240.77C248.996 238.77 250.41 237.384 251.708 237.674C253.005 237.963 253.694 239.819 253.247 241.818Z" fill="#AAB0C2"/>
<path d="M203.451 205.426C203.208 205.621 203.165 205.973 203.353 206.22L209.801 214.714L210.654 215.361C218.068 211.853 245.669 191.669 255.203 182.215L251.524 176.35C249.385 172.941 244.743 172.163 241.608 174.689C236.134 180.317 216.73 195.588 203.451 205.426Z" fill="#EF3120"/>
<path d="M235.649 258.858L231.032 263.86C229.177 265.886 229.176 268.991 231.029 271.019L235.988 276.444C242.134 270.646 244.27 257.845 244.27 257.845L235.649 258.858Z" fill="#080604"/>
<path d="M239.712 280.751L234.028 277.864L230.247 272.362C228.5 269.822 228.735 266.415 230.812 264.138L233.293 261.418L242.26 274.046L239.712 280.751Z" fill="#080604"/>
<path d="M244.269 257.845L235.498 267.145C233.643 269.171 233.642 272.276 235.495 274.304L239.711 280.751C246.768 274.095 252.207 268.809 244.269 257.845Z" fill="#AAB0C2"/>
<path d="M265.927 320.886L281.804 301.7C288.272 293.183 287.487 277.032 271.807 266.264L265.486 269.788L249.904 286.087L253.285 293.428L264.457 313.104L265.927 320.886Z" fill="#778293"/>
<path d="M251.815 286.527L271.808 266.264L262.008 266.068L239.271 287.995L251.815 286.527Z" fill="#D8D9E1"/>
<path d="M243.19 312.859C257.302 321.865 268.671 308.552 239.27 287.995L251.815 286.527C281.803 311.489 266.22 336.744 239.27 319.124L238.878 317.558L243.19 312.859Z" fill="#566576"/>
<path d="M203.016 205.776L187.133 196.37C187.133 196.37 186.84 196.811 188.31 198.72C189.78 200.629 190.955 202.391 190.955 202.391L210.654 215.361L203.016 205.776Z" fill="#B01419"/>
</g>
</g>
</g>
<defs>
<linearGradient id="paint0_linear_2001_231" x1="515.483" y1="327.503" x2="460.961" y2="301.133" gradientUnits="userSpaceOnUse">
<stop stop-color="#E88A0F"/>
<stop offset="1" stop-color="#FCD006"/>
</linearGradient>
<linearGradient id="paint1_linear_2001_231" x1="438.886" y1="301.726" x2="385.324" y2="273.617" gradientUnits="userSpaceOnUse">
<stop stop-color="#E88A0F"/>
<stop offset="1" stop-color="#FCD006"/>
</linearGradient>
<clipPath id="clip0_2001_231">
<rect width="824" height="787" fill="white"/>
</clipPath>
<clipPath id="clip1_2001_231">
<rect width="822" height="709" fill="white" transform="translate(38 39)"/>
</clipPath>
</defs>
</svg>
