<svg width="735" height="254" viewBox="0 0 735 254" fill="none" xmlns="http://www.w3.org/2000/svg">
<path d="M351.654 80.2931C345.381 80.2931 337.911 84.923 333.579 94.4819H332.981V87.6118C332.981 82.6828 331.788 80.4426 326.558 80.4426C320.881 80.4426 307.437 85.9698 307.437 89.5543C307.437 92.5408 309.827 93.4366 314.458 95.9759C315.804 96.8717 316.848 98.3656 316.699 100.905V142.875C316.699 148.849 308.335 148.998 308.335 153.329C308.335 156.168 310.725 157.213 315.206 157.213H335.371C340.002 157.213 342.243 156.168 342.243 153.329C342.243 148.998 333.879 148.849 333.879 142.875V114.646C333.879 101.054 338.659 98.3656 343.589 98.3656C347.472 98.3656 348.818 99.4109 352.103 99.4109C357.481 99.4109 361.962 96.2749 361.962 89.4048C361.962 84.3263 358.678 80.2931 351.654 80.2931Z" fill="#F8F6F2"/>
<path d="M520.921 142.876V87.7613C520.921 82.9819 519.428 80.4426 513.302 80.4426C507.627 80.4426 494.48 84.4758 494.48 88.6571C494.48 91.4955 496.571 91.645 500.603 94.6315C502.848 96.4245 503.741 98.216 503.741 101.801V142.876C503.741 148.85 495.377 149 495.377 153.331C495.377 156.169 497.767 157.214 502.249 157.214H522.414C527.045 157.214 529.285 156.169 529.285 153.331C529.285 149 520.921 148.85 520.921 142.876Z" fill="#F8F6F2"/>
<path d="M511.211 71.9291C517.634 71.9291 522.564 67.2991 522.564 61.1753C522.564 55.0514 517.634 50.4215 511.211 50.4215C504.789 50.4215 500.008 55.0528 500.008 61.1753C500.008 67.2977 504.789 71.9291 511.211 71.9291Z" fill="#F8F6F2"/>
<path d="M602.746 142.876L586.314 120.473C589.599 118.829 592.437 117.038 594.977 115.245C606.479 107.18 611.708 98.5165 611.708 90.6011C611.708 83.5814 607.377 80.2945 601.699 80.2945C597.517 80.2945 591.393 82.9833 591.393 89.5557C591.393 95.6796 597.218 97.4712 596.024 101.355C595.426 103.446 594.379 105.536 590.646 108.374C588.554 109.868 585.566 111.66 581.534 113.9L568.386 95.9773C567.192 94.4833 566.744 93.2899 566.744 92.3927C566.744 89.7039 571.075 89.4062 571.075 86.1207C571.075 82.9833 568.984 82.5347 564.653 82.5347H542.842C539.405 82.5347 537.164 83.5814 537.164 86.7174C537.164 92.0936 542.543 89.8534 546.426 94.4833L564.804 119.278C560.468 121.219 556.736 123.459 553.152 125.998C543.737 133.018 537.464 140.636 537.464 149.149C537.464 155.571 541.496 159.455 548.071 159.455C553.447 159.455 558.227 156.169 558.227 150.045C558.227 144.071 551.057 142.13 553.152 138.695C554.346 136.453 555.837 134.661 557.932 132.719C560.318 130.628 563.607 128.538 569.584 125.699L583.925 145.116C584.37 145.714 584.82 146.461 584.82 147.057C584.82 149.299 580.787 149.597 580.787 153.033C580.787 155.87 582.729 157.214 586.614 157.214H607.976C611.859 157.214 613.352 155.273 613.352 152.884C613.352 146.909 607.528 149.447 602.747 142.876H602.746Z" fill="#F8F6F2"/>
<path d="M642.189 95.1661C641.733 94.8233 641.392 94.4072 641.392 93.4959V73.0562C641.392 71.9178 640.442 70.9317 638.624 70.9317C636.308 70.9317 631.263 72.2592 631.263 73.7757C631.263 74.5727 631.718 74.8746 632.25 75.2174C632.894 75.635 633.503 76.2402 633.503 77.9852V80.4497C632.479 79.9574 631.607 79.7302 630.125 79.7302C624.096 79.7302 620.644 83.9398 620.644 89.8563C620.644 96.3807 624.096 99.7932 629.101 99.7932C631.756 99.7932 633.691 98.3515 634.604 96.8731H634.832V97.7463C634.832 99.1866 635.285 99.7932 636.65 99.7932C639.194 99.7932 643.592 98.391 643.592 96.9493C643.592 95.887 642.832 95.6571 642.189 95.1661ZM633.462 91.6775C633.462 93.383 633.084 94.8614 631.72 94.8614C629.33 94.8614 628.192 89.3244 628.192 86.5199C628.192 84.205 628.99 83.5617 629.935 83.5617C631.756 83.5617 633.462 86.8232 633.462 91.487V91.6775Z" fill="#F8F6F2"/>
<path d="M663.685 86.3662C663.685 83.257 660.539 79.8064 655.19 79.8064C648.853 79.8064 644.948 84.243 644.948 90.3119C644.948 96.0746 648.969 99.7551 655.455 99.7551C659.854 99.7551 662.51 97.2892 663.344 94.9009C663.534 94.331 663.647 93.802 663.647 93.2701C663.647 92.3221 663.042 91.6774 662.281 91.6774C661.903 91.6774 661.484 91.8665 661.107 92.246C659.741 93.6877 658.679 93.991 657.161 93.991C654.431 93.991 652.687 92.5873 652.04 89.8195H660.348C662.659 89.8195 663.685 88.7954 663.685 86.3676V86.3662ZM656.859 87.0108H651.775C651.775 85.191 652.688 83.2189 654.469 83.2189C656.556 83.2189 656.972 85.0006 656.972 86.139C656.972 86.4423 656.934 86.7442 656.859 87.0108Z" fill="#F8F6F2"/>
<path d="M683.471 79.7302C681.384 79.7302 679.828 80.9067 679.828 83.0313C679.828 85.3053 681.878 85.6848 681.803 88.1112C681.762 89.1354 681.309 90.69 680.928 91.8284C680.55 92.9273 680.02 94.2181 679.526 94.2181C678.882 94.2181 678.692 93.6877 678.427 92.8907C677.593 90.5009 676.456 86.6709 676.456 85.2672C676.456 83.7126 678.161 84.1302 678.161 81.9295C678.161 80.9067 677.402 80.2987 675.581 80.2987H668.526C666.709 80.2987 665.605 80.8687 665.605 82.0438C665.605 84.3573 667.352 84.0159 667.995 85.761C669.095 88.794 670.311 92.7002 671.41 95.6204C672.357 98.161 673.913 99.7918 677.518 99.7918C680.626 99.7918 682.145 98.3134 683.701 94.7866C685.443 90.8423 687 85.9881 687 83.1427C687 80.9434 685.481 79.7302 683.472 79.7302H683.471Z" fill="#F8F6F2"/>
<path d="M465.382 44C451.938 44 442.378 51.9154 442.378 63.565C442.378 72.5272 447.753 77.6057 449.844 82.5333H445.864C440.934 82.5333 438.248 84.6239 438.248 88.5076C438.248 92.0922 440.634 94.4819 445.864 94.4819H449.695V142.876C449.695 148.85 441.331 149 441.331 153.331C441.331 156.169 443.721 157.214 448.202 157.214H468.368C472.998 157.214 475.239 156.169 475.239 153.331C475.239 149 466.875 148.85 466.875 142.876V94.4819H476.933C481.422 94.4819 484.557 92.6889 484.557 88.5076C484.557 84.6239 481.863 82.5333 476.933 82.5333H466.58C466.553 82.5333 466.001 80.9561 465.929 80.8024C464.437 77.5916 461.764 75.1271 459.572 72.4087C458.431 70.9938 457.287 69.4533 456.59 67.7633C455.779 65.7953 455.608 63.1136 455.81 61.006C456.185 57.0843 458.228 54.3644 462.286 54.1726C465.643 54.0146 468.713 55.9218 470.399 58.7714C471.264 60.2343 471.648 61.8863 472.442 63.3788C473.928 66.1678 476.461 68.1949 479.724 68.1949C484.056 68.1949 486.895 65.0589 486.895 59.9804C486.893 51.3187 477.931 44 465.382 44Z" fill="#F8F6F2"/>
<path d="M433.283 109.868C433.283 93.1403 422.525 80.5936 402.36 80.5936C380.101 80.5936 364.267 97.4712 364.267 120.77C364.267 143.772 379.951 159.455 403.703 159.455C417.301 159.455 428.054 151.986 432.236 142.427C432.984 141.084 433.283 139.74 433.283 138.545C433.283 136.453 431.937 135.109 430.145 135.109C428.652 135.109 427.605 135.707 426.112 137.201C420.734 142.726 415.804 145.714 408.184 145.714C393.694 145.714 383.687 134.811 382.192 118.979H423.723C430.445 118.979 433.283 116.14 433.283 109.868ZM415.304 110.124H382.203C383.469 96.6868 390.72 88.7093 400.27 88.7093C410.875 88.7093 415.506 96.1042 415.506 107.702C415.506 108.463 415.435 109.143 415.306 110.124H415.304Z" fill="#F8F6F2"/>
<path d="M264.276 80.3834C255.026 80.3834 246.069 84.4096 240.85 90.0806H240.401V86.4988C240.401 82.3231 238.014 80.533 234.879 80.533C228.165 80.533 215.032 85.3068 215.032 89.632C215.032 92.617 217.12 92.7666 221.301 95.8969C223.539 97.5404 224.286 99.4787 224.286 102.912L224.262 178.038C224.262 184.012 215.898 184.162 215.898 188.492C215.898 191.331 218.288 192.376 222.77 192.376H242.935C247.566 192.376 249.807 191.331 249.807 188.492C249.807 184.162 241.442 184.012 241.442 178.038V151.844C246.516 156.169 253.678 159.453 263.975 159.453C285.014 159.453 299.637 142.296 299.637 119.323C299.637 94.7063 284.715 80.3848 264.275 80.3848L264.276 80.3834ZM280.201 126.12C279.909 141.639 273.358 150.547 262.294 150.547C249.479 150.547 240.743 133.446 240.889 114.909C241.176 99.7044 247.473 90.8508 258.134 90.4981C258.351 90.484 258.573 90.477 258.797 90.4812C271.612 90.4812 280.348 107.583 280.201 126.12Z" fill="#F8F6F2"/>
<path d="M161.338 59.2201C161.012 50.7629 155.583 45.1215 146.908 44.7928C119.262 43.7475 91.611 43.7235 63.9632 44.7942C55.4834 45.1215 49.8762 50.7629 49.5333 59.2201C49.2102 67.23 49.0268 78.2857 49 85.3773C49 88.9125 51.7598 91.5844 55.4664 91.5844C57.4686 91.5844 59.1984 90.7873 60.3865 89.5135C60.409 89.5008 60.4415 89.4994 60.457 89.481C61.59 88.234 62.4013 86.6963 63.516 85.4253C64.8761 83.8749 66.4423 82.46 68.1905 81.3596C71.6177 79.2012 75.3963 77.9923 79.845 77.9923C91.5447 77.9923 101.064 86.558 101.064 99.2953C101.064 112.195 91.7945 120.91 79.1508 120.91C71.5585 120.91 64.8338 117.619 61.1117 111.24C61.0637 111.156 61.0016 111.093 60.9508 111.015C60.9269 110.982 60.9029 110.949 60.8789 110.915C60.7251 110.699 60.5558 110.505 60.3724 110.331C59.1857 109.067 57.4601 108.277 55.4678 108.277C52.2212 108.277 49.7027 110.328 49.127 113.212C49.0381 113.469 49 113.817 49.0014 114.483C49.0254 121.559 49.2187 133.723 49.5348 142.148C49.69 146.29 51.3704 150.326 54.5521 153.049C58.1825 156.156 62.2997 156.158 66.74 156.963C68.2709 157.241 69.806 157.736 70.9814 158.797C72.6802 160.332 73.3066 162.867 72.7606 165.089C72.1638 167.511 70.4297 169.094 68.4713 170.469C66.6582 171.743 64.9862 173.105 63.5696 174.823C60.5459 178.488 58.9797 183.113 58.9797 187.852C58.9797 200.751 67.9323 210 80.9964 210C93.8982 210 103.203 201.32 103.203 189.15C103.203 184.407 101.904 179.657 99.092 175.798C97.7544 173.962 96.1078 172.378 94.2453 171.083C92.3758 169.784 90.4851 168.822 89.5341 166.601C88.9965 165.344 88.8145 163.927 89.1179 162.586C90.4569 156.657 97.0785 157.308 101.711 157.324C108.205 157.348 114.7 157.319 121.193 157.23C129.768 157.113 138.341 156.896 146.909 156.574C155.015 156.269 161.013 150.452 161.339 142.147C162.424 114.505 162.405 86.8599 161.339 59.2173L161.338 59.2201Z" fill="#FFCA16"/>
</svg>
