<svg width="535" height="407" viewBox="0 0 535 407" fill="none" xmlns="http://www.w3.org/2000/svg">
<g clip-path="url(#clip0_2013_674)">
<path d="M207 0C210.08 0 213.107 0.229325 216.064 0.669922C266.941 0.395122 326.931 0.171213 392.548 0C384.736 1.88471 377 4.95791 369.723 11.1855L369.134 11.6973C356.861 22.5134 350.521 38.176 349.928 54C348.788 84.3689 348.092 128.175 348.006 153.665V153.672C348.001 155.948 348.101 157.842 348.62 159.541C351.307 172.243 362.484 181 376.267 181C384.732 181 392.221 177.65 397.446 172.147C398.195 171.428 398.889 170.644 399.522 169.798L399.803 169.415L399.811 169.404C399.837 169.367 399.866 169.327 399.911 169.265C399.952 169.208 400.01 169.128 400.069 169.044L400.122 168.969L400.134 168.951C400.151 168.928 400.166 168.909 400.235 168.819C400.351 168.67 400.623 168.32 400.887 167.866L401.473 166.882C413.933 146.366 436.017 135.569 461.457 135.568C483.031 135.568 501.445 142.986 514.44 155.623C527.42 168.245 535.284 186.351 535.284 208.303C535.284 251.214 503.415 279.917 463.954 279.917C448.944 279.917 436.269 275.862 424.695 268.575L424.694 268.574C418.893 264.923 413.616 260.178 408.975 254.889L408.976 254.888C407.196 252.859 405.632 250.587 403.852 248.014C402.132 245.53 400.207 242.76 397.914 240.236L397.912 240.238C397.612 239.908 397.304 239.653 397.024 239.46C391.821 234.214 384.512 231.034 376.262 231.034C360.351 231.034 348.001 242.702 348.001 258.357V258.376C348.098 283.921 348.758 323.746 349.924 352.631C350.584 368.919 356.347 382.843 366.358 392.867C373.062 399.579 381.516 404.388 391.275 407.023C316.952 406.992 253.752 406.955 210.257 406.914C209.178 406.971 208.093 407 207 407H61C27.3106 407 0 379.689 0 346V61C0 48.6373 3.67805 37.1338 9.99902 27.5234C14.6555 19.231 21.4759 12.7013 30.1318 8.37598C39.1869 3.053 49.7368 0 61 0H207Z" fill="#FFD432"/>
<mask id="mask0_2013_674" style="mask-type:alpha" maskUnits="userSpaceOnUse" x="0" y="0" width="536" height="408">
<path d="M392.548 0C384.736 1.88471 377 4.95785 369.723 11.1855L369.134 11.6973C356.861 22.5134 350.521 38.1759 349.928 54C348.788 84.3689 348.093 128.175 348.006 153.665V153.672C348.001 155.948 348.101 157.842 348.62 159.541C351.307 172.243 362.484 181 376.267 181C384.732 181 392.221 177.65 397.447 172.147C398.196 171.428 398.889 170.644 399.523 169.798L399.803 169.415L399.811 169.404C399.837 169.367 399.866 169.327 399.911 169.265C399.952 169.208 400.01 169.128 400.07 169.044L400.122 168.969L400.134 168.951C400.152 168.928 400.166 168.909 400.236 168.819C400.351 168.67 400.623 168.32 400.887 167.866L401.473 166.882C413.933 146.366 436.017 135.568 461.457 135.568C483.031 135.568 501.446 142.986 514.441 155.623C527.42 168.245 535.284 186.351 535.284 208.303C535.284 251.214 503.415 279.917 463.954 279.917C448.944 279.917 436.269 275.862 424.696 268.575L424.695 268.574C418.893 264.923 413.616 260.178 408.975 254.889L408.976 254.888C407.197 252.859 405.632 250.587 403.852 248.014C402.133 245.53 400.207 242.76 397.914 240.236L397.912 240.238C397.612 239.907 397.304 239.653 397.025 239.46C391.821 234.214 384.512 231.034 376.262 231.034C360.351 231.034 348.001 242.702 348.001 258.357V258.376C348.098 283.921 348.759 323.746 349.924 352.631C350.585 368.919 356.347 382.843 366.359 392.867C373.062 399.579 381.516 404.388 391.276 407.023C253.664 406.966 154.182 406.892 147.312 406.798C116.469 406.377 85.6298 405.595 54.8069 404.438C25.649 403.342 4.07306 382.42 2.90063 352.553C-1.00231 253.144 -0.931275 153.72 2.90063 54.3066L2.90649 54.3164C4.07886 23.9012 23.6091 3.61277 54.8127 2.43066C85.6673 1.2643 219.557 0.451386 392.548 0Z" fill="#FFD432"/>
</mask>
<g mask="url(#mask0_2013_674)">
<mask id="mask1_2013_674" style="mask-type:luminance" maskUnits="userSpaceOnUse" x="-123" y="-256" width="1454" height="1327">
<path d="M-123 27.9626L1085.68 -256L1330.61 786.525L121.926 1070.49L-123 27.9626Z" fill="white"/>
</mask>
<g mask="url(#mask1_2013_674)">
<path d="M266.374 380.437C259.648 389.676 255.007 389.562 267.979 412.314C280.951 435.067 319.765 467.394 341.451 478.532C357.863 486.961 384.067 485.761 402.611 463.998C421.156 442.236 424.511 429.121 415.046 416.929C405.581 404.738 360.806 350.633 353.674 339.819C346.541 329.004 326.892 323.381 315.978 331.72C305.063 340.059 266.374 380.437 266.374 380.437Z" fill="#778293"/>
<path d="M329.055 337.205C322.118 329.227 303.994 333.608 288.574 346.989C273.155 360.372 266.279 377.688 273.215 385.665C280.153 393.644 298.277 389.263 313.696 375.881C329.115 362.499 335.992 345.183 329.055 337.205Z" fill="#080604"/>
<path d="M267.558 361.123C267.558 361.123 283.475 333.083 284.34 332.88C285.204 332.677 306.402 346.53 299.885 360.212C293.367 373.894 267.558 361.123 267.558 361.123Z" fill="#080604"/>
<path d="M222.588 327.642L245.06 293.201L257.156 305.851L232.826 342.096C232.826 342.096 226.522 338.564 222.588 327.642Z" fill="#080604"/>
<path d="M224.549 341.154C219.161 336.345 214.727 325.236 215.207 316.922L228.814 324.357C228.814 324.357 228.284 331.164 233.366 337.26L231.093 340.528C231.093 340.528 227.21 340.833 224.549 341.154Z" fill="#566576"/>
<path d="M243.847 297.738L228.812 324.356L215.205 316.922L239.571 275.657L248.044 280.653L243.847 297.738Z" fill="#AAB0C2"/>
<path d="M233.877 158.222L246.088 148.063L229.749 145.826L256.446 117.075L213.557 123.506L210.212 47.1356L184.131 122.522L163.881 82.9293L158.568 122.452L126.732 69.7859L132.472 109.749L116.714 97.0483L133.235 136.302L79.9054 139.718L122.406 160.11L61.2353 179.341L134.122 184.088L92.3961 229.128L144.586 205.324L140.99 265.099L175.435 207.189L233.877 158.222Z" fill="white"/>
<path d="M153.238 192.963L155.475 199.601C158.119 204.663 148.848 207.188 153.193 210.896L252.09 290.175L259.976 277.128L163.146 193.066L153.238 192.963Z" fill="#080604"/>
<path d="M233.893 153.434L191.576 143.859L150.653 207.847L177.256 216.19L182.813 214.644L226.442 156.666L233.893 153.434Z" fill="#D8D9E1"/>
<path d="M259.946 187.638L308.002 231.026L289.964 249.389L249.813 210.523L259.946 187.638Z" fill="#778293"/>
<path d="M268.604 368.168L325.032 261.822C329.584 253.243 328.031 242.707 321.198 235.809L308.762 223.254L290.375 243.369L254.797 211.023L267.526 184.947L238.417 156.166C234.094 151.891 227.929 152.967 224.19 157.765L187.875 210.95C187.587 211.321 181.71 219.608 182.072 219.907L257.18 279.418L252.089 290.175L254.201 301.685L231.091 340.529L252.828 359.268L268.604 368.168Z" fill="#B01419"/>
<path d="M261.839 403.853C267.757 394.965 270.654 385.005 271.654 377.132C272.655 369.26 256.826 350.996 242.291 343.561C227.756 336.127 217.729 341.526 203.646 353.936L261.839 403.853Z" fill="#566576"/>
<path d="M687.826 195.049C637.163 140.995 546.209 139.911 526.688 176.176L687.826 195.049Z" fill="#F47216"/>
<path d="M687.74 195.039L687.827 195.05C637.163 140.996 546.209 139.911 526.688 176.175L537.289 176.894C558.261 148.621 635.769 148.649 687.74 195.039Z" fill="#FAB20B"/>
</g>
<mask id="mask2_2013_674" style="mask-type:luminance" maskUnits="userSpaceOnUse" x="-123" y="-256" width="1454" height="1327">
<path d="M-123 27.9626L1085.68 -256L1330.61 786.525L121.926 1070.49L-123 27.9626Z" fill="white"/>
</mask>
<g mask="url(#mask2_2013_674)">
<path d="M240.361 370.031C256.43 383.815 266.046 398.957 261.839 403.851C257.631 408.746 241.193 401.539 225.123 387.755C209.054 373.971 199.438 358.829 203.645 353.935C207.853 349.041 224.292 356.247 240.361 370.031Z" fill="#080604"/>
<path d="M200.463 145.818C210.308 154.035 204.181 169.366 191.759 184.218C179.335 199.069 165.319 207.816 155.474 199.599C145.629 191.382 147.719 172.681 160.142 157.83C172.566 142.978 190.617 137.601 200.463 145.818Z" fill="#080604"/>
<path d="M173.132 157.663L135.071 125.749C132.121 126.138 127.936 122.565 126.498 117.738L113.52 106.51C110.859 106.832 107.03 103.479 105.151 99.3635L91.6822 87.3397C89.1554 88.2369 83.8361 83.7151 83.3801 80.4808L69.9117 68.4571C69.4526 70.387 66.7732 71.9279 65.521 69.185L57.7571 69.7941L59.0884 81.9357L80.2829 100.954C82.5207 100.124 85.926 102.969 87.8052 107.084L101.41 119.684C106.021 118.601 109.459 124.172 110.491 127.271L123.892 139.007C125.554 138.313 129.603 141.311 132.329 146.442L144.595 157.229C147.054 156.044 152.374 160.566 153.1 164.951L163.088 171.869C169.038 172.598 176.381 166.316 173.132 157.663Z" fill="#AAB0C2"/>
<path d="M135.07 125.748C132.869 126.038 129.981 124.121 128.059 121.125L144.693 157.198C146.434 156.478 149.479 158.425 151.412 161.143L136.155 126.702L135.07 125.748Z" fill="#566576"/>
<path d="M113.52 106.511C111.248 106.785 108.13 104.379 106.096 101.111L123.32 138.506L123.891 139.007C125.553 138.313 129.603 141.311 132.329 146.442L113.959 106.89L113.52 106.511Z" fill="#566576"/>
<path d="M84.629 83.1927L101.411 119.683C104.75 118.899 107.468 121.604 109.109 124.331L91.6833 87.339C89.8259 87.9991 86.4625 85.7271 84.629 83.1927Z" fill="#566576"/>
<path d="M69.9134 68.4561C69.4545 70.3869 66.7751 71.9278 65.5227 69.1841L79.2959 100.066L80.2849 100.954C82.5227 100.123 85.9286 102.968 87.808 107.084L88.3774 107.612L70.9707 69.401L69.9134 68.4561Z" fill="#566576"/>
<path d="M271.352 254.745L264.315 263.388C262.058 266.16 257.979 266.58 255.205 264.327L198.231 218.041L213.443 199.36L270.417 245.645C273.19 247.898 273.609 251.973 271.352 254.745Z" fill="#778293"/>
<path d="M263.567 251.834C263.6 254.928 261.999 257.455 259.991 257.477C257.983 257.5 256.329 255.009 256.296 251.915C256.263 248.82 257.863 246.294 259.871 246.271C261.878 246.249 263.533 248.739 263.567 251.834Z" fill="#AAB0C2"/>
<path d="M177.773 215.523C177.484 215.894 177.543 216.427 177.905 216.726L190.319 226.987L191.798 227.645C201.487 219.925 235.1 180.712 245.853 163.516L238.417 156.163C234.093 151.889 227 152.349 223.262 157.146C217.158 167.312 193.901 196.47 177.773 215.523Z" fill="#EF3120"/>
<path d="M243.577 282.969L238.515 291.919C236.487 295.539 237.559 300.105 240.985 302.447L250.151 308.71C257.185 298.062 255.903 278.502 255.903 278.502L243.577 282.969Z" fill="#080604"/>
<path d="M257.114 313.757L247.758 311.475L240.298 304.691C236.852 301.559 236.02 296.469 238.289 292.402L240.997 287.546L258.544 303.017L257.114 313.757Z" fill="#080604"/>
<path d="M255.901 278.5L246.217 295.205C244.189 298.825 245.26 303.391 248.686 305.733L257.113 313.756C265.189 301.531 271.361 291.879 255.901 278.5Z" fill="#AAB0C2"/>
<path d="M309.526 363.715L326.243 330.019C332.812 315.261 326.079 291.782 299.303 281.366L291.225 288.731L273.944 318.08L281.451 327.707L304.676 352.78L309.526 363.715Z" fill="#778293"/>
<path d="M276.906 318.069L299.303 281.367L284.826 284.465L258.969 324.562L276.906 318.069Z" fill="#D8D9E1"/>
<path d="M273.32 359.767C297.182 368.134 309.299 344.631 258.967 324.561L276.905 318.068C329.624 344.413 315.435 386.932 269.721 370.334L268.603 368.165L273.32 359.767Z" fill="#566576"/>
<path d="M177.255 216.188L150.652 207.845C150.652 207.845 150.372 208.595 153.193 210.894C156.014 213.193 158.352 215.377 158.352 215.377L191.798 227.644L177.255 216.188Z" fill="#B01419"/>
</g>
</g>
</g>
<defs>
<clipPath id="clip0_2013_674">
<rect width="535" height="407" fill="white"/>
</clipPath>
</defs>
</svg>
