<svg width="535" height="407" viewBox="0 0 535 407" fill="none" xmlns="http://www.w3.org/2000/svg">
<g clip-path="url(#clip0_2012_673)">
<path d="M392.548 0C384.736 1.88471 377 4.95785 369.723 11.1855L369.134 11.6973C356.861 22.5134 350.521 38.1759 349.928 54C348.788 84.3689 348.093 128.175 348.006 153.665V153.672C348.001 155.948 348.101 157.842 348.62 159.541C351.307 172.243 362.484 181 376.267 181C384.732 181 392.221 177.65 397.447 172.147C398.196 171.428 398.889 170.644 399.523 169.798L399.803 169.415L399.811 169.404C399.837 169.367 399.866 169.327 399.911 169.265C399.952 169.208 400.01 169.128 400.07 169.044L400.122 168.969L400.134 168.951C400.152 168.928 400.166 168.909 400.236 168.819C400.351 168.67 400.623 168.32 400.887 167.866L401.473 166.882C413.933 146.366 436.017 135.568 461.457 135.568C483.031 135.568 501.446 142.986 514.441 155.623C527.42 168.245 535.284 186.351 535.284 208.303C535.284 251.214 503.415 279.917 463.954 279.917C448.944 279.917 436.269 275.862 424.696 268.575L424.695 268.574C418.893 264.923 413.616 260.178 408.975 254.889L408.976 254.888C407.197 252.859 405.632 250.587 403.852 248.014C402.133 245.53 400.207 242.76 397.914 240.236L397.912 240.238C397.612 239.907 397.304 239.653 397.025 239.46C391.821 234.214 384.512 231.034 376.262 231.034C360.351 231.034 348.001 242.702 348.001 258.357V258.376C348.098 283.921 348.759 323.746 349.924 352.631C350.585 368.919 356.347 382.843 366.359 392.867C373.062 399.579 381.516 404.388 391.276 407.023C253.664 406.966 154.182 406.892 147.312 406.798C116.469 406.377 85.6298 405.595 54.8069 404.438C25.649 403.342 4.07306 382.42 2.90063 352.553C-1.00231 253.144 -0.931275 153.72 2.90063 54.3066L2.90649 54.3164C4.07886 23.9012 23.6091 3.61277 54.8127 2.43066C85.6673 1.2643 219.557 0.451386 392.548 0Z" fill="#FFD432"/>
<mask id="mask0_2012_673" style="mask-type:alpha" maskUnits="userSpaceOnUse" x="0" y="0" width="536" height="408">
<path d="M392.548 0C384.736 1.88471 377 4.95785 369.723 11.1855L369.134 11.6973C356.861 22.5134 350.521 38.1759 349.928 54C348.788 84.3689 348.093 128.175 348.006 153.665V153.672C348.001 155.948 348.101 157.842 348.62 159.541C351.307 172.243 362.484 181 376.267 181C384.732 181 392.221 177.65 397.447 172.147C398.196 171.428 398.889 170.644 399.523 169.798L399.803 169.415L399.811 169.404C399.837 169.367 399.866 169.327 399.911 169.265C399.952 169.208 400.01 169.128 400.07 169.044L400.122 168.969L400.134 168.951C400.152 168.928 400.166 168.909 400.236 168.819C400.351 168.67 400.623 168.32 400.887 167.866L401.473 166.882C413.933 146.366 436.017 135.568 461.457 135.568C483.031 135.568 501.446 142.986 514.441 155.623C527.42 168.245 535.284 186.351 535.284 208.303C535.284 251.214 503.415 279.917 463.954 279.917C448.944 279.917 436.269 275.862 424.696 268.575L424.695 268.574C418.893 264.923 413.616 260.178 408.975 254.889L408.976 254.888C407.197 252.859 405.632 250.587 403.852 248.014C402.133 245.53 400.207 242.76 397.914 240.236L397.912 240.238C397.612 239.907 397.304 239.653 397.025 239.46C391.821 234.214 384.512 231.034 376.262 231.034C360.351 231.034 348.001 242.702 348.001 258.357V258.376C348.098 283.921 348.759 323.746 349.924 352.631C350.585 368.919 356.347 382.843 366.359 392.867C373.062 399.579 381.516 404.388 391.276 407.023C253.664 406.966 154.182 406.892 147.312 406.798C116.469 406.377 85.6298 405.595 54.8069 404.438C25.649 403.342 4.07306 382.42 2.90063 352.553C-1.00231 253.144 -0.931275 153.72 2.90063 54.3066L2.90649 54.3164C4.07886 23.9012 23.6091 3.61277 54.8127 2.43066C85.6673 1.2643 219.557 0.451386 392.548 0Z" fill="#FFD432"/>
</mask>
<g mask="url(#mask0_2012_673)">
<mask id="mask1_2012_673" style="mask-type:luminance" maskUnits="userSpaceOnUse" x="-123" y="-256" width="1454" height="1327">
<path d="M-123 27.9626L1085.68 -256L1330.61 786.525L121.926 1070.49L-123 27.9626Z" fill="white"/>
</mask>
<g mask="url(#mask1_2012_673)">
<path d="M266.374 380.436C259.648 389.675 255.007 389.561 267.979 412.313C280.95 435.066 319.765 467.393 341.451 478.531C357.863 486.96 384.067 485.76 402.611 463.997C421.155 442.235 424.511 429.12 415.046 416.929C405.58 404.737 360.806 350.632 353.673 339.818C346.541 329.003 326.892 323.38 315.978 331.719C305.063 340.058 266.374 380.436 266.374 380.436Z" fill="#778293"/>
<path d="M329.055 337.204C322.118 329.226 303.994 333.607 288.574 346.988C273.155 360.371 266.278 377.687 273.215 385.664C280.152 393.643 298.276 389.262 313.696 375.88C329.115 362.498 335.992 345.182 329.055 337.204Z" fill="#080604"/>
<path d="M267.558 361.122C267.558 361.122 283.475 333.082 284.34 332.879C285.204 332.676 306.402 346.529 299.885 360.211C293.367 373.893 267.558 361.122 267.558 361.122Z" fill="#080604"/>
<path d="M222.588 327.641L245.06 293.2L257.156 305.85L232.826 342.095C232.826 342.095 226.522 338.563 222.588 327.641Z" fill="#080604"/>
<path d="M224.549 341.153C219.161 336.344 214.727 325.235 215.207 316.921L228.813 324.356C228.813 324.356 228.284 331.163 233.366 337.259L231.093 340.528C231.093 340.528 227.21 340.832 224.549 341.153Z" fill="#566576"/>
<path d="M243.847 297.737L228.812 324.355L215.205 316.921L239.571 275.656L248.044 280.652L243.847 297.737Z" fill="#AAB0C2"/>
<path d="M233.877 158.221L246.088 148.062L229.749 145.825L256.446 117.074L213.557 123.505L210.212 47.1346L184.131 122.521L163.881 82.9283L158.568 122.451L126.732 69.785L132.472 109.748L116.714 97.0473L133.235 136.301L79.9054 139.717L122.406 160.109L61.2353 179.34L134.122 184.087L92.3961 229.127L144.586 205.323L140.99 265.098L175.435 207.188L233.877 158.221Z" fill="white"/>
<path d="M153.238 192.962L155.475 199.6C158.119 204.662 148.848 207.187 153.193 210.895L252.09 290.174L259.976 277.128L163.146 193.065L153.238 192.962Z" fill="#080604"/>
<path d="M233.893 153.433L191.576 143.858L150.653 207.846L177.256 216.189L182.813 214.643L226.442 156.665L233.893 153.433Z" fill="#D8D9E1"/>
<path d="M259.946 187.637L308.002 231.025L289.964 249.388L249.813 210.522L259.946 187.637Z" fill="#778293"/>
<path d="M268.604 368.167L325.032 261.821C329.584 253.242 328.031 242.706 321.198 235.808L308.762 223.253L290.375 243.368L254.797 211.022L267.526 184.946L238.417 156.165C234.094 151.89 227.929 152.966 224.19 157.764L187.875 210.949C187.587 211.32 181.71 219.607 182.072 219.906L257.18 279.417L252.089 290.174L254.201 301.684L231.091 340.528L252.828 359.267L268.604 368.167Z" fill="#B01419"/>
<path d="M261.839 403.853C267.757 394.965 270.654 385.005 271.654 377.132C272.655 369.26 256.826 350.996 242.291 343.561C227.756 336.127 217.729 341.526 203.646 353.936L261.839 403.853Z" fill="#566576"/>
<path d="M687.826 195.048C637.163 140.994 546.209 139.91 526.688 176.175L687.826 195.048Z" fill="#F47216"/>
<path d="M687.74 195.038L687.827 195.049C637.163 140.995 546.209 139.91 526.688 176.174L537.289 176.893C558.261 148.62 635.769 148.648 687.74 195.038Z" fill="#FAB20B"/>
</g>
<mask id="mask2_2012_673" style="mask-type:luminance" maskUnits="userSpaceOnUse" x="-123" y="-256" width="1454" height="1327">
<path d="M-123 27.9626L1085.68 -256L1330.61 786.525L121.926 1070.49L-123 27.9626Z" fill="white"/>
</mask>
<g mask="url(#mask2_2012_673)">
<path d="M240.361 370.032C256.43 383.816 266.046 398.958 261.839 403.852C257.631 408.747 241.193 401.54 225.123 387.756C209.054 373.972 199.438 358.83 203.645 353.936C207.853 349.042 224.292 356.248 240.361 370.032Z" fill="#080604"/>
<path d="M200.463 145.819C210.308 154.036 204.182 169.367 191.759 184.219C179.335 199.07 165.319 207.817 155.474 199.6C145.629 191.383 147.719 172.682 160.143 157.831C172.566 142.979 190.618 137.602 200.463 145.819Z" fill="#080604"/>
<path d="M173.132 157.663L135.071 125.749C132.121 126.138 127.936 122.565 126.498 117.738L113.52 106.51C110.859 106.832 107.03 103.479 105.151 99.3635L91.6823 87.3397C89.1555 88.2369 83.8362 83.7151 83.3803 80.4808L69.9118 68.4571C69.4527 70.387 66.7733 71.9279 65.5211 69.185L57.7572 69.7941L59.0885 81.9357L80.2831 100.954C82.5208 100.124 85.9261 102.969 87.8054 107.084L101.41 119.684C106.021 118.601 109.459 124.172 110.491 127.271L123.892 139.007C125.554 138.313 129.603 141.311 132.329 146.442L144.595 157.229C147.054 156.044 152.374 160.566 153.1 164.951L163.088 171.869C169.038 172.598 176.381 166.316 173.132 157.663Z" fill="#AAB0C2"/>
<path d="M135.07 125.749C132.869 126.039 129.981 124.122 128.059 121.126L144.693 157.199C146.434 156.479 149.479 158.426 151.412 161.144L136.155 126.703L135.07 125.749Z" fill="#566576"/>
<path d="M113.52 106.512C111.248 106.786 108.13 104.38 106.096 101.112L123.32 138.507L123.891 139.008C125.553 138.313 129.603 141.311 132.329 146.443L113.959 106.891L113.52 106.512Z" fill="#566576"/>
<path d="M84.6291 83.1927L101.411 119.683C104.75 118.899 107.468 121.604 109.109 124.331L91.6835 87.339C89.826 87.9991 86.4626 85.7271 84.6291 83.1927Z" fill="#566576"/>
<path d="M69.9134 68.4571C69.4545 70.3878 66.7751 71.9288 65.5227 69.1851L79.2959 100.067L80.2849 100.955C82.5227 100.124 85.9286 102.969 87.808 107.085L88.3774 107.613L70.9707 69.402L69.9134 68.4571Z" fill="#566576"/>
<path d="M271.352 254.746L264.316 263.389C262.058 266.161 257.979 266.581 255.205 264.328L198.231 218.042L213.443 199.361L270.417 245.646C273.191 247.899 273.609 251.974 271.352 254.746Z" fill="#778293"/>
<path d="M263.567 251.834C263.6 254.928 261.999 257.455 259.991 257.477C257.983 257.5 256.329 255.009 256.296 251.915C256.263 248.82 257.863 246.294 259.871 246.271C261.878 246.249 263.533 248.739 263.567 251.834Z" fill="#AAB0C2"/>
<path d="M177.773 215.524C177.484 215.895 177.543 216.428 177.905 216.727L190.319 226.988L191.798 227.645C201.487 219.926 235.1 180.713 245.853 163.517L238.417 156.164C234.093 151.89 227 152.35 223.262 157.147C217.158 167.313 193.901 196.471 177.773 215.524Z" fill="#EF3120"/>
<path d="M243.577 282.969L238.515 291.919C236.487 295.539 237.559 300.105 240.985 302.447L250.151 308.71C257.185 298.062 255.903 278.502 255.903 278.502L243.577 282.969Z" fill="#080604"/>
<path d="M257.114 313.757L247.758 311.475L240.298 304.691C236.852 301.559 236.02 296.469 238.289 292.402L240.997 287.546L258.544 303.017L257.114 313.757Z" fill="#080604"/>
<path d="M255.901 278.501L246.217 295.206C244.189 298.826 245.26 303.392 248.686 305.734L257.113 313.757C265.189 301.532 271.361 291.88 255.901 278.501Z" fill="#AAB0C2"/>
<path d="M309.526 363.716L326.243 330.019C332.812 315.262 326.079 291.783 299.303 281.367L291.226 288.732L273.944 318.081L281.452 327.708L304.676 352.781L309.526 363.716Z" fill="#778293"/>
<path d="M276.906 318.069L299.303 281.367L284.826 284.465L258.969 324.562L276.906 318.069Z" fill="#D8D9E1"/>
<path d="M273.32 359.767C297.182 368.134 309.299 344.631 258.967 324.561L276.905 318.068C329.624 344.413 315.435 386.932 269.721 370.334L268.603 368.165L273.32 359.767Z" fill="#566576"/>
<path d="M177.255 216.188L150.652 207.845C150.652 207.845 150.372 208.595 153.193 210.894C156.014 213.193 158.352 215.377 158.352 215.377L191.798 227.644L177.255 216.188Z" fill="#B01419"/>
</g>
</g>
</g>
<defs>
<clipPath id="clip0_2012_673">
<rect width="535" height="407" fill="white"/>
</clipPath>
</defs>
</svg>
